<svg xmlns="http://www.w3.org/2000/svg" version="1.1" x="0" y="0" viewBox="0 0 255.1 255.4" enable-background="new 0 0 255.1 255.4" xml:space="preserve"><path fill="#0072BB" d="M255.1 10.6c-0.5-5.9-4.8-10.1-10.8-10.6h-14.5v0.4l0-0.4c0 0-1.3 0-2.7 0.1 -0.6 0.1-1.2 0.2-1.9 0.3 -0.5 0.1-1.8 0.5-2.8 1.3 -4.1 3-8.4 10.4-10.7 14.3l-47 79.4c-1.4 2.4-1.6 4.7-0.6 6.5 1 1.8 3.1 2.8 5.9 2.8h74.8c5.6 0 10.2-4.6 10.2-10.2L255.1 10.6z"/><path fill="#D60F3C" d="M241.9 205.9c-2.9-2.1-6.5-3.1-10.8-3.1h-19.7l-6.4 8.2H232c1.3 0 2.5 0.3 3.4 1 0.9 0.6 1.4 1.5 1.4 2.6 0 1.1-0.5 2-1.4 2.7 -0.9 0.7-2 1-3.4 1h-27.1v16h9.7v-7.8H231c4.3 0 8-1 10.9-3.1 3-2.2 4.6-5.1 4.6-8.6C246.4 211 244.9 208.1 241.9 205.9M194.9 206.3c-0.3-1.1-1-2.1-2-2.9 -1-0.8-2.2-1.2-3.6-1.2 -2.1 0-3.8 1.2-5.3 3.7l-9.6 15.7 -9.6-15.7c-1.5-2.4-3.3-3.7-5.4-3.7 -1.3 0-2.5 0.4-3.6 1.2 -1 0.8-1.7 1.7-2 2.9l-8.1 27.9h10.7l4.1-16.6 8.8 14.1c0.5 0.8 1.2 1.4 2.2 2 1 0.5 2 0.8 3 0.8 2 0 3.6-0.9 4.8-2.7l8.8-14.1 4.1 16.6H203L194.9 206.3zM144.7 234.1L125 206.2c-0.7-1-1.5-1.8-2.6-2.4 -1.2-0.8-2.4-1.1-3.6-1.1 -1.2 0-2.4 0.4-3.6 1.1 -1.1 0.7-2 1.5-2.7 2.4l-20.1 27.9h12.1l14.2-19.4 8.2 11.2h-13.1l-5.9 8.2H144.7zM90.3 202.7h-9.7v11.6H61.8v-11.6h-9.7v31.4h9.7v-11.6h18.7v11.6h9.7V202.7zM27.6 226.1c-2.7 0-4.9-0.7-6.6-2.1 -1.7-1.4-2.6-3.2-2.6-5.4 0-2.2 0.9-4.1 2.6-5.5 1.7-1.4 3.9-2.2 6.6-2.2h15.8l6.3-8.2h-22c-5.5 0-10.1 1.4-13.6 4.3 -3.5 2.8-5.3 6.6-5.3 11.1 0 4.6 1.8 8.4 5.4 11.4 3.6 3 8.1 4.5 13.6 4.5h15.8l6.3-8H27.6zM255.1 102.5v142.3c0 5.8-4.8 10.6-10.6 10.6H10.6c-5.8 0-10.6-4.8-10.6-10.6V11.3C0 5.5 4.8 0 10.6 0h209.7c-0.5 0-1.1 0-1.8 0.1 -0.6 0.1-1.2 0.2-1.8 0.3 -0.7 0.2-1.7 0.5-2.6 1.1 -4.2 3.1-8.7 11.7-10.9 15.5l-44.1 74.5c-5.9 10.4-3.8 20.2 12.4 20.2H246C251.2 111.7 254.9 107.6 255.1 102.5"/></svg>